<?xml version="1.0" encoding="UTF-8"?><svg id="Layer_2" xmlns="http://www.w3.org/2000/svg" xmlns:xlink="http://www.w3.org/1999/xlink" viewBox="0 0 367.07 367.07"><defs><style>.cls-1{fill:url(#linear-gradient);}.cls-1,.cls-2,.cls-3,.cls-4,.cls-5,.cls-6,.cls-7,.cls-8,.cls-9,.cls-10,.cls-11,.cls-12,.cls-13,.cls-14,.cls-15,.cls-16,.cls-17,.cls-18,.cls-19,.cls-20,.cls-21,.cls-22,.cls-23,.cls-24{stroke-width:0px;}.cls-2{fill:url(#linear-gradient-11);}.cls-3{fill:url(#linear-gradient-12);}.cls-4{fill:url(#linear-gradient-13);}.cls-5{fill:url(#linear-gradient-10);}.cls-6{fill:url(#linear-gradient-17);}.cls-7{fill:url(#linear-gradient-16);}.cls-8{fill:url(#linear-gradient-19);}.cls-9{fill:url(#linear-gradient-15);}.cls-10{fill:url(#linear-gradient-21);}.cls-11{fill:url(#linear-gradient-18);}.cls-12{fill:url(#linear-gradient-14);}.cls-13{fill:url(#linear-gradient-20);}.cls-14{fill:url(#linear-gradient-4);}.cls-15{fill:url(#linear-gradient-2);}.cls-16{fill:url(#linear-gradient-3);}.cls-17{fill:url(#linear-gradient-8);}.cls-18{fill:url(#linear-gradient-9);}.cls-19{fill:url(#linear-gradient-7);}.cls-20{fill:url(#linear-gradient-5);}.cls-21{fill:url(#linear-gradient-6);}.cls-22{fill:#231f20;}.cls-23{fill:#fff;}.cls-24{fill:#ffe077;}</style><linearGradient id="linear-gradient" x1="184.74" y1="153.84" x2="364.71" y2="153.84" gradientUnits="userSpaceOnUse"><stop offset="0" stop-color="#fff33b"/><stop offset=".12" stop-color="#fee62d"/><stop offset=".35" stop-color="#fdd51b"/><stop offset=".59" stop-color="#fdca0f"/><stop offset=".84" stop-color="#fdc70c"/><stop offset="1" stop-color="#f9b129"/></linearGradient><linearGradient id="linear-gradient-2" x1="184.74" y1="153.84" x2="364.71" y2="153.84" gradientTransform="translate(65.7 -47.73) rotate(18)" xlink:href="#linear-gradient"/><linearGradient id="linear-gradient-3" x1="184.74" y1="153.84" y2="153.84" gradientTransform="translate(142.93 -72.83) rotate(36)" xlink:href="#linear-gradient"/><linearGradient id="linear-gradient-4" x1="184.74" y1="153.84" x2="364.71" y2="153.84" gradientTransform="translate(224.14 -72.83) rotate(54)" xlink:href="#linear-gradient"/><linearGradient id="linear-gradient-5" x1="184.74" y1="153.84" y2="153.84" gradientTransform="translate(301.37 -47.73) rotate(72)" xlink:href="#linear-gradient"/><linearGradient id="linear-gradient-6" x1="184.74" y1="153.84" x2="364.71" y2="153.84" gradientTransform="translate(367.07) rotate(90)" xlink:href="#linear-gradient"/><linearGradient id="linear-gradient-7" x1="184.74" y1="153.84" x2="364.71" y2="153.84" gradientTransform="translate(414.8 65.7) rotate(108)" xlink:href="#linear-gradient"/><linearGradient id="linear-gradient-8" x1="184.74" y1="153.84" y2="153.84" gradientTransform="translate(439.89 142.93) rotate(126)" xlink:href="#linear-gradient"/><linearGradient id="linear-gradient-9" x1="184.74" y1="153.84" x2="364.71" y2="153.84" gradientTransform="translate(439.89 224.14) rotate(144)" xlink:href="#linear-gradient"/><linearGradient id="linear-gradient-10" x1="184.74" y1="153.84" x2="364.71" y2="153.84" gradientTransform="translate(414.8 301.37) rotate(162)" xlink:href="#linear-gradient"/><linearGradient id="linear-gradient-11" x1="184.74" y1="153.84" x2="364.71" y2="153.84" gradientTransform="translate(367.07 367.07) rotate(-180)" xlink:href="#linear-gradient"/><linearGradient id="linear-gradient-12" x1="184.74" y1="153.84" y2="153.84" gradientTransform="translate(301.37 414.8) rotate(-162)" xlink:href="#linear-gradient"/><linearGradient id="linear-gradient-13" x1="184.74" x2="364.71" gradientTransform="translate(224.14 439.89) rotate(-144)" xlink:href="#linear-gradient"/><linearGradient id="linear-gradient-14" x1="184.74" y1="153.84" x2="364.71" y2="153.84" gradientTransform="translate(142.93 439.89) rotate(-126)" xlink:href="#linear-gradient"/><linearGradient id="linear-gradient-15" x1="184.74" y1="153.84" y2="153.84" gradientTransform="translate(65.7 414.8) rotate(-108)" xlink:href="#linear-gradient"/><linearGradient id="linear-gradient-16" gradientTransform="translate(0 367.07) rotate(-90)" xlink:href="#linear-gradient"/><linearGradient id="linear-gradient-17" x1="184.74" gradientTransform="translate(-47.73 301.37) rotate(-72)" xlink:href="#linear-gradient"/><linearGradient id="linear-gradient-18" x1="184.74" gradientTransform="translate(-72.83 224.14) rotate(-54)" xlink:href="#linear-gradient"/><linearGradient id="linear-gradient-19" x1="184.74" y1="153.84" y2="153.84" gradientTransform="translate(-72.83 142.93) rotate(-36)" xlink:href="#linear-gradient"/><linearGradient id="linear-gradient-20" x1="184.74" y1="153.84" y2="153.84" gradientTransform="translate(-47.73 65.7) rotate(-18)" xlink:href="#linear-gradient"/><linearGradient id="linear-gradient-21" y1="153.84" x2="364.71" y2="153.84" xlink:href="#linear-gradient"/></defs><g id="Layer_3"><path class="cls-1" d="m184.74,182.25l167.13-2.4c1.05.01,7.02,0,9.76-4.11.32-.48.63-1.07.86-1.77,1.33-4.37,2.98-11.86,1.83-21.06-1.57-12.55-7.46-21.21-10.44-25.03-.49-.55-1.48-1.49-3.02-2.04-2.59-.93-4.87-.08-5.48.18-53.55,18.74-107.1,37.49-160.64,56.23Z"/><path class="cls-23" d="m184.74,183.5c29.44-.42,58.87-.84,88.31-1.27,14.8-.21,29.6-.42,44.4-.64,7.32-.1,14.63-.21,21.95-.31,3.66-.05,7.32-.1,10.98-.16,1.7-.02,3.36-.03,5.03-.34,2.17-.41,4.31-1.29,5.94-2.8,1.82-1.68,2.48-3.93,3.06-6.25,1.36-5.51,1.85-11.25,1.36-16.9-.85-9.88-4.57-19.42-10.59-27.29-1.55-2.03-3.93-3.26-6.49-3.36-2.78-.11-5.56,1.31-8.12,2.2-6.99,2.45-13.98,4.89-20.96,7.34-13.82,4.84-27.64,9.67-41.46,14.51-27.79,9.73-55.59,19.46-83.38,29.19-3.45,1.21-6.91,2.42-10.36,3.63-1.51.53-.86,2.94.66,2.41,27.01-9.45,54.02-18.91,81.03-28.36,13.5-4.73,27.01-9.45,40.51-14.18,13.19-4.62,26.33-9.4,39.57-13.86,2.42-.81,5.15-.23,6.83,1.75,1.02,1.2,1.89,2.59,2.73,3.93,2.61,4.15,4.63,8.66,5.94,13.39,1.67,6.03,2.15,12.35,1.46,18.57-.27,2.43-.74,4.84-1.37,7.21s-1.46,4.11-3.58,5.3c-1.58.89-3.43,1.28-5.23,1.39-2.52.14-5.06.08-7.59.12l-21.45.31c-14.3.21-28.6.41-42.91.62-28.6.41-57.21.82-85.81,1.23-3.49.05-6.98.1-10.48.15-1.61.02-1.61,2.52,0,2.5Z"/><path class="cls-15" d="m185.08,182.69c53.23,16.46,106.46,32.91,159.69,49.37,1,.34,6.68,2.16,10.55-.9.46-.36.93-.82,1.37-1.41,2.61-3.74,6.5-10.36,8.25-19.46,2.39-12.42-.54-22.48-2.19-27.03-.3-.67-.95-1.88-2.24-2.87-2.18-1.68-4.6-1.58-5.26-1.53-56.72,1.28-113.44,2.56-170.16,3.84Z"/><path class="cls-23" d="m184.69,183.88c28.13,8.69,56.25,17.39,84.38,26.08,14.14,4.37,28.28,8.74,42.43,13.12,6.99,2.16,13.98,4.32,20.97,6.48,3.5,1.08,6.99,2.16,10.49,3.24,1.62.5,3.2,1.01,4.89,1.23,2.19.29,4.49.1,6.52-.83,2.24-1.03,3.58-2.97,4.84-5,3-4.81,5.24-10.13,6.52-15.65,2.24-9.66,1.66-19.88-1.64-29.23-.85-2.41-2.73-4.31-5.13-5.2-2.61-.96-5.69-.47-8.4-.41-7.4.17-14.8.33-22.21.5-14.64.33-29.27.66-43.91.99-29.44.66-58.88,1.33-88.32,1.99-3.66.08-7.32.16-10.98.25-1.6.04-1.73,2.53-.11,2.5,28.61-.64,57.22-1.29,85.83-1.93,14.3-.32,28.61-.64,42.91-.97,13.97-.31,27.95-.8,41.92-.96,2.55-.03,4.97,1.37,5.96,3.77.6,1.46,1,3.05,1.39,4.58,1.2,4.76,1.73,9.67,1.51,14.57-.28,6.25-1.78,12.41-4.35,18.11-1.01,2.23-2.2,4.38-3.53,6.43s-2.66,3.45-5.04,3.93c-1.78.35-3.66.16-5.4-.3-2.44-.64-4.84-1.49-7.25-2.23l-20.5-6.34c-13.67-4.22-27.33-8.45-41-12.67-27.33-8.45-54.66-16.9-81.99-25.35-3.34-1.03-6.67-2.06-10.01-3.09-1.54-.47-2.31,1.9-.77,2.38Z"/><path class="cls-16" d="m185.26,183.21c45.54,32.1,91.08,64.2,136.62,96.3.84.63,5.69,4.12,10.31,2.41.54-.2,1.13-.49,1.74-.92,3.64-2.75,9.38-7.85,13.86-15.96,6.11-11.07,6.43-21.55,6.27-26.38-.08-.73-.32-2.08-1.25-3.43-1.55-2.27-3.89-2.92-4.54-3.08-54.34-16.31-108.68-32.62-163.01-48.93Z"/><path class="cls-23" d="m184.53,184.22c24.06,16.96,48.12,33.92,72.19,50.88,12.1,8.53,24.2,17.06,36.3,25.58,5.98,4.22,11.96,8.43,17.94,12.65,2.99,2.11,5.98,4.22,8.97,6.32,1.39.98,2.73,1.95,4.27,2.68,2,.95,4.24,1.49,6.46,1.23,2.45-.29,4.32-1.72,6.15-3.26,4.34-3.65,8.11-8.01,11.04-12.87,5.12-8.5,7.72-18.39,7.47-28.3-.06-2.55-1.26-4.94-3.28-6.53-2.19-1.72-5.27-2.21-7.86-2.99-7.09-2.13-14.18-4.26-21.27-6.39-14.02-4.21-28.05-8.42-42.07-12.63-28.2-8.47-56.41-16.93-84.61-25.4-3.51-1.05-7.01-2.1-10.52-3.16-1.53-.46-2.43,1.88-.88,2.34,27.41,8.23,54.82,16.45,82.22,24.68,13.7,4.11,27.41,8.23,41.11,12.34,13.38,4.02,26.83,7.87,40.16,12.05,2.43.76,4.31,2.84,4.5,5.43.12,1.58,0,3.21-.1,4.78-.33,4.9-1.35,9.73-3.07,14.32-2.2,5.86-5.52,11.25-9.74,15.88-1.65,1.81-3.44,3.49-5.34,5.03s-3.59,2.46-6.01,2.18c-1.8-.21-3.53-.98-5.05-1.95-2.12-1.37-4.15-2.91-6.21-4.36l-17.54-12.36c-11.69-8.24-23.38-16.48-35.07-24.72-23.38-16.48-46.76-32.96-70.15-49.44-2.85-2.01-5.71-4.02-8.56-6.04-1.31-.93-2.79,1.09-1.47,2.02Z"/><path class="cls-14" d="m185.28,183.76c33.39,44.6,66.78,89.2,100.18,133.8.61.86,4.14,5.68,9.06,5.48.58-.02,1.23-.12,1.94-.34,4.31-1.49,11.35-4.57,18.11-10.9,9.23-8.64,12.77-18.5,14.11-23.16.15-.72.33-2.08-.13-3.64-.77-2.64-2.8-3.98-3.36-4.33-46.64-32.3-93.28-64.61-139.91-96.91Z"/><path class="cls-23" d="m184.27,184.49c17.64,23.57,35.29,47.13,52.93,70.7,8.87,11.85,17.74,23.7,26.61,35.55,4.39,5.86,8.77,11.72,13.16,17.57,2.19,2.93,4.39,5.86,6.58,8.79,1.02,1.36,2,2.7,3.24,3.87,1.6,1.52,3.57,2.73,5.76,3.16,2.42.48,4.64-.3,6.86-1.2,5.26-2.13,10.19-5.12,14.47-8.83,7.49-6.5,13.02-15.11,15.85-24.61.73-2.45.33-5.09-1.1-7.22-1.55-2.31-4.33-3.73-6.55-5.27-6.09-4.22-12.17-8.43-18.26-12.65-12.04-8.34-24.07-16.67-36.11-25.01-24.21-16.77-48.42-33.54-72.62-50.3-3.01-2.08-6.02-4.17-9.03-6.25-1.31-.91-2.89,1.04-1.56,1.95,23.52,16.29,47.05,32.59,70.57,48.88,11.76,8.15,23.52,16.29,35.29,24.44,11.49,7.96,23.08,15.78,34.48,23.87,2.08,1.48,3.22,4.03,2.6,6.56-.37,1.54-.98,3.06-1.57,4.52-1.82,4.56-4.29,8.84-7.34,12.67-3.9,4.9-8.73,9-14.17,12.1-2.12,1.21-4.35,2.25-6.63,3.13s-4.18,1.23-6.39.22c-1.65-.76-3.06-2.02-4.2-3.42-1.6-1.95-3.04-4.05-4.56-6.07l-12.86-17.17c-8.57-11.45-17.14-22.9-25.72-34.35-17.14-22.9-34.29-45.8-51.43-68.7-2.09-2.8-4.19-5.59-6.28-8.39-.96-1.29-2.99.18-2.02,1.47Z"/><path class="cls-20" d="m185.13,184.29c17.98,52.74,35.95,105.47,53.93,158.21.31,1,2.18,6.68,6.93,8.01.56.16,1.21.27,1.95.28,4.56-.09,12.2-.84,20.59-4.77,11.45-5.37,17.86-13.65,20.58-17.66.37-.64.96-1.87,1.01-3.51.08-2.75-1.43-4.65-1.86-5.16-34.37-45.13-68.75-90.27-103.12-135.4Z"/><path class="cls-23" d="m183.94,184.67c9.5,27.86,18.99,55.73,28.49,83.59,4.78,14.01,9.55,28.02,14.33,42.03,2.36,6.93,4.72,13.85,7.08,20.78l3.54,10.39c.55,1.61,1.07,3.18,1.88,4.68,1.06,1.94,2.56,3.7,4.5,4.79,2.16,1.21,4.51,1.15,6.89.98,5.66-.4,11.27-1.72,16.5-3.93,9.13-3.86,17.05-10.34,22.68-18.51,1.45-2.1,1.88-4.74,1.19-7.21-.76-2.68-2.96-4.88-4.6-7.04-4.49-5.89-8.97-11.78-13.46-17.67-8.87-11.65-17.74-23.3-26.61-34.94-17.84-23.43-35.68-46.86-53.52-70.28-2.22-2.91-4.44-5.82-6.65-8.74-.97-1.27-3.07.09-2.09,1.38,17.34,22.77,34.68,45.53,52.01,68.3,8.67,11.38,17.34,22.77,26.01,34.15,8.47,11.12,17.08,22.14,25.41,33.35,1.52,2.05,1.81,4.83.45,7.04-.83,1.34-1.88,2.6-2.89,3.81-3.14,3.77-6.81,7.08-10.9,9.78-5.22,3.45-11.08,5.86-17.21,7.13-2.4.5-4.83.8-7.28.93s-4.36-.12-6.14-1.77c-1.33-1.23-2.28-2.87-2.94-4.55-.92-2.35-1.64-4.79-2.46-7.18-2.31-6.77-4.61-13.54-6.92-20.31-4.61-13.54-9.23-27.08-13.84-40.62-9.23-27.08-18.46-54.15-27.69-81.23-1.13-3.31-2.25-6.61-3.38-9.92-.52-1.52-2.9-.75-2.38.77Z"/><path class="cls-21" d="m184.82,184.74l2.4,167.13c-.01,1.05,0,7.02,4.11,9.76.48.32,1.07.63,1.77.86,4.37,1.33,11.86,2.98,21.06,1.83,12.55-1.57,21.21-7.46,25.03-10.44.55-.49,1.49-1.48,2.04-3.02.93-2.59.08-4.87-.18-5.48-18.74-53.55-37.49-107.1-56.23-160.64Z"/><path class="cls-23" d="m183.57,184.74c.42,29.44.84,58.87,1.27,88.31.21,14.8.42,29.6.64,44.4.1,7.32.21,14.63.31,21.95l.16,10.98c.02,1.7.03,3.36.34,5.03.41,2.17,1.29,4.31,2.8,5.94,1.68,1.82,3.93,2.48,6.25,3.06,5.51,1.36,11.25,1.85,16.9,1.36,9.88-.85,19.42-4.57,27.29-10.59,2.03-1.55,3.26-3.93,3.36-6.49.11-2.78-1.31-5.56-2.2-8.12-2.45-6.99-4.89-13.98-7.34-20.96-4.84-13.82-9.67-27.64-14.51-41.46-9.73-27.79-19.46-55.59-29.19-83.38-1.21-3.45-2.42-6.91-3.63-10.36-.53-1.51-2.94-.86-2.41.66,9.45,27.01,18.91,54.02,28.36,81.03,4.73,13.5,9.45,27.01,14.18,40.51s9.4,26.33,13.86,39.57c.81,2.42.23,5.15-1.75,6.83-1.2,1.02-2.59,1.89-3.93,2.73-4.15,2.61-8.66,4.63-13.39,5.94-6.03,1.67-12.35,2.15-18.57,1.46-2.43-.27-4.84-.74-7.21-1.37s-4.11-1.46-5.3-3.58c-.89-1.58-1.28-3.43-1.39-5.23-.14-2.52-.08-5.06-.12-7.59l-.31-21.45c-.21-14.3-.41-28.6-.62-42.91-.41-28.6-.82-57.21-1.23-85.81-.05-3.49-.1-6.98-.15-10.48-.02-1.61-2.52-1.61-2.5,0Z"/><path class="cls-19" d="m184.38,185.08c-16.46,53.23-32.91,106.46-49.37,159.69-.34,1-2.16,6.68.9,10.55.36.46.82.93,1.41,1.37,3.74,2.61,10.36,6.5,19.46,8.25,12.42,2.39,22.48-.54,27.03-2.19.67-.3,1.88-.95,2.87-2.24,1.68-2.18,1.58-4.6,1.53-5.26-1.28-56.72-2.56-113.44-3.84-170.16Z"/><path class="cls-23" d="m183.19,184.69c-8.69,28.13-17.39,56.25-26.08,84.38-4.37,14.14-8.74,28.28-13.12,42.43-2.16,6.99-4.32,13.98-6.48,20.97l-3.24,10.49c-.5,1.62-1.01,3.2-1.23,4.89-.29,2.19-.1,4.49.83,6.52,1.03,2.24,2.97,3.58,5,4.84,4.81,3,10.13,5.24,15.65,6.52,9.66,2.24,19.88,1.66,29.23-1.64,2.41-.85,4.31-2.73,5.2-5.13.96-2.61.47-5.69.41-8.4-.17-7.4-.33-14.8-.5-22.21-.33-14.64-.66-29.27-.99-43.91-.66-29.44-1.33-58.88-1.99-88.32-.08-3.66-.16-7.32-.25-10.98-.04-1.6-2.53-1.73-2.5-.11.64,28.61,1.29,57.22,1.93,85.83.32,14.3.64,28.61.97,42.91s.8,27.95.96,41.92c.03,2.55-1.37,4.97-3.77,5.96-1.46.6-3.05,1-4.58,1.39-4.76,1.2-9.67,1.73-14.57,1.51-6.25-.28-12.41-1.78-18.11-4.35-2.23-1.01-4.38-2.2-6.43-3.53s-3.45-2.66-3.93-5.04c-.35-1.78-.16-3.66.3-5.4.64-2.44,1.49-4.84,2.23-7.25,2.11-6.83,4.22-13.67,6.34-20.5,4.22-13.67,8.45-27.33,12.67-41,8.45-27.33,16.9-54.66,25.35-81.99,1.03-3.34,2.06-6.67,3.09-10.01.47-1.54-1.9-2.31-2.38-.77Z"/><path class="cls-17" d="m183.86,185.26c-32.1,45.54-64.2,91.08-96.3,136.62-.63.84-4.12,5.69-2.41,10.31.2.54.49,1.13.92,1.74,2.75,3.64,7.85,9.38,15.96,13.86,11.07,6.11,21.55,6.43,26.38,6.27.73-.08,2.08-.32,3.43-1.25,2.27-1.55,2.92-3.89,3.08-4.54,16.31-54.34,32.62-108.68,48.93-163.01Z"/><path class="cls-23" d="m182.85,184.53c-16.96,24.06-33.92,48.12-50.88,72.19-8.53,12.1-17.06,24.2-25.58,36.3l-12.65,17.94-6.32,8.97c-.98,1.39-1.95,2.73-2.68,4.27-.95,2-1.49,4.24-1.23,6.46.29,2.45,1.72,4.32,3.26,6.15,3.65,4.34,8.01,8.11,12.87,11.04,8.5,5.12,18.39,7.72,28.3,7.47,2.55-.06,4.94-1.26,6.53-3.28,1.72-2.19,2.21-5.27,2.99-7.86,2.13-7.09,4.26-14.18,6.39-21.27,4.21-14.02,8.42-28.05,12.63-42.07,8.47-28.2,16.93-56.41,25.4-84.61,1.05-3.51,2.1-7.01,3.16-10.52.46-1.53-1.88-2.43-2.34-.88-8.23,27.41-16.45,54.82-24.68,82.22-4.11,13.7-8.23,27.41-12.34,41.11-4.02,13.38-7.87,26.83-12.05,40.16-.76,2.43-2.84,4.31-5.43,4.5-1.58.12-3.21,0-4.78-.1-4.9-.33-9.73-1.35-14.32-3.07-5.86-2.2-11.25-5.52-15.88-9.74-1.81-1.65-3.49-3.44-5.03-5.34s-2.46-3.59-2.18-6.01c.21-1.8.98-3.53,1.95-5.05,1.37-2.12,2.91-4.15,4.36-6.21,4.12-5.85,8.24-11.69,12.36-17.54,8.24-11.69,16.48-23.38,24.72-35.07,16.48-23.38,32.96-46.76,49.44-70.15,2.01-2.85,4.02-5.71,6.04-8.56.93-1.31-1.09-2.79-2.02-1.47Z"/><path class="cls-18" d="m183.31,185.28c-44.6,33.39-89.2,66.78-133.8,100.18-.86.61-5.68,4.14-5.48,9.06.02.58.12,1.23.34,1.94,1.49,4.31,4.57,11.35,10.9,18.11,8.64,9.23,18.5,12.77,23.16,14.11.72.15,2.08.33,3.64-.13,2.64-.77,3.98-2.8,4.33-3.36,32.3-46.64,64.61-93.28,96.91-139.91Z"/><path class="cls-23" d="m182.58,184.27c-23.57,17.64-47.13,35.29-70.7,52.93-11.85,8.87-23.7,17.74-35.55,26.61l-17.57,13.16-8.79,6.58c-1.36,1.02-2.7,2-3.87,3.24-1.52,1.6-2.73,3.57-3.16,5.76-.48,2.42.3,4.64,1.2,6.86,2.13,5.26,5.12,10.19,8.83,14.47,6.5,7.49,15.11,13.02,24.61,15.85,2.45.73,5.09.33,7.22-1.1,2.31-1.55,3.73-4.33,5.27-6.55,4.22-6.09,8.43-12.17,12.65-18.26,8.34-12.04,16.67-24.07,25.01-36.11,16.77-24.21,33.54-48.42,50.3-72.62,2.08-3.01,4.17-6.02,6.25-9.03.91-1.31-1.04-2.89-1.95-1.56-16.29,23.52-32.59,47.05-48.88,70.57-8.15,11.76-16.29,23.52-24.44,35.29-7.96,11.49-15.78,23.08-23.87,34.48-1.48,2.08-4.03,3.22-6.56,2.6-1.54-.37-3.06-.98-4.52-1.57-4.56-1.82-8.84-4.29-12.67-7.34-4.9-3.9-9-8.73-12.1-14.17-1.21-2.12-2.25-4.35-3.13-6.63s-1.23-4.18-.22-6.39c.76-1.65,2.02-3.06,3.42-4.2,1.95-1.6,4.05-3.04,6.07-4.56,5.72-4.29,11.45-8.57,17.17-12.86,11.45-8.57,22.9-17.14,34.35-25.72,22.9-17.14,45.8-34.29,68.7-51.43,2.8-2.09,5.59-4.19,8.39-6.28,1.29-.96-.18-2.99-1.47-2.02Z"/><path class="cls-5" d="m182.78,185.13c-52.74,17.98-105.47,35.95-158.21,53.93-1,.31-6.68,2.18-8.01,6.93-.16.56-.27,1.21-.28,1.95.09,4.56.84,12.2,4.77,20.59,5.37,11.45,13.65,17.86,17.66,20.58.64.37,1.87.96,3.51,1.01,2.75.08,4.65-1.43,5.16-1.86,45.13-34.37,90.27-68.75,135.4-103.12Z"/><path class="cls-23" d="m182.39,183.94c-27.86,9.5-55.73,18.99-83.59,28.49-14.01,4.78-28.02,9.55-42.03,14.33l-20.78,7.08-10.39,3.54c-1.61.55-3.18,1.07-4.68,1.88-1.94,1.06-3.7,2.56-4.79,4.5-1.21,2.16-1.15,4.51-.98,6.89.4,5.66,1.72,11.27,3.93,16.5,3.86,9.13,10.34,17.05,18.51,22.68,2.1,1.45,4.74,1.88,7.21,1.19,2.68-.76,4.88-2.96,7.04-4.6,5.89-4.49,11.78-8.97,17.67-13.46,11.65-8.87,23.3-17.74,34.94-26.61,23.43-17.84,46.86-35.68,70.28-53.52,2.91-2.22,5.82-4.44,8.74-6.65,1.27-.97-.09-3.07-1.38-2.09-22.77,17.34-45.53,34.68-68.3,52.01-11.38,8.67-22.77,17.34-34.15,26.01-11.12,8.47-22.14,17.08-33.35,25.41-2.05,1.52-4.83,1.81-7.04.45-1.34-.83-2.6-1.88-3.81-2.89-3.77-3.14-7.08-6.81-9.78-10.9-3.45-5.22-5.86-11.08-7.13-17.21-.5-2.4-.8-4.83-.93-7.28s.12-4.36,1.77-6.14c1.23-1.33,2.87-2.28,4.55-2.94,2.35-.92,4.79-1.64,7.18-2.46,6.77-2.31,13.54-4.61,20.31-6.92,13.54-4.61,27.08-9.23,40.62-13.84,27.08-9.23,54.15-18.46,81.23-27.69,3.31-1.13,6.61-2.25,9.92-3.38,1.52-.52.75-2.9-.77-2.38Z"/><path class="cls-2" d="m182.33,184.82l-167.13,2.4c-1.05-.01-7.02,0-9.76,4.11-.32.48-.63,1.07-.86,1.77-1.33,4.37-2.98,11.86-1.83,21.06,1.57,12.55,7.46,21.21,10.44,25.03.49.55,1.48,1.49,3.02,2.04,2.59.93,4.87.08,5.48-.18,53.55-18.74,107.1-37.49,160.64-56.23Z"/><path class="cls-23" d="m182.33,183.57c-29.44.42-58.87.84-88.31,1.27-14.8.21-29.6.42-44.4.64l-21.95.31-10.98.16c-1.7.02-3.36.03-5.03.34-2.17.41-4.31,1.29-5.94,2.8-1.82,1.68-2.48,3.93-3.06,6.25-1.36,5.51-1.85,11.25-1.36,16.9.85,9.88,4.57,19.42,10.59,27.29,1.55,2.03,3.93,3.26,6.49,3.36,2.78.11,5.56-1.31,8.12-2.2,6.99-2.45,13.98-4.89,20.96-7.34,13.82-4.84,27.64-9.67,41.46-14.51,27.79-9.73,55.59-19.46,83.38-29.19,3.45-1.21,6.91-2.42,10.36-3.63,1.51-.53.86-2.94-.66-2.41-27.01,9.45-54.02,18.91-81.03,28.36-13.5,4.73-27.01,9.45-40.51,14.18-13.19,4.62-26.33,9.4-39.57,13.86-2.42.81-5.15.23-6.83-1.75-1.02-1.2-1.89-2.59-2.73-3.93-2.61-4.15-4.63-8.66-5.94-13.39-1.67-6.03-2.15-12.35-1.46-18.57.27-2.43.74-4.84,1.37-7.21s1.46-4.11,3.58-5.3c1.58-.89,3.43-1.28,5.23-1.39,2.52-.14,5.06-.08,7.59-.12,7.15-.1,14.3-.21,21.45-.31,14.3-.21,28.6-.41,42.91-.62,28.6-.41,57.21-.82,85.81-1.23,3.49-.05,6.98-.1,10.48-.15,1.61-.02,1.61-2.52,0-2.5Z"/><path class="cls-3" d="m181.99,184.38c-53.23-16.46-106.46-32.91-159.69-49.37-1-.34-6.68-2.16-10.55.9-.46.36-.93.82-1.37,1.41-2.61,3.74-6.5,10.36-8.25,19.46-2.39,12.42.54,22.48,2.19,27.03.3.67.95,1.88,2.24,2.87,2.18,1.68,4.6,1.58,5.26,1.53,56.72-1.28,113.44-2.56,170.16-3.84Z"/><path class="cls-23" d="m182.38,183.19c-28.13-8.69-56.25-17.39-84.38-26.08-14.14-4.37-28.28-8.74-42.43-13.12l-20.97-6.48-10.49-3.24c-1.62-.5-3.2-1.01-4.89-1.23-2.19-.29-4.49-.1-6.52.83-2.24,1.03-3.58,2.97-4.84,5-3,4.81-5.24,10.13-6.52,15.65-2.24,9.66-1.66,19.88,1.64,29.23.85,2.41,2.73,4.31,5.13,5.2,2.61.96,5.69.47,8.4.41,7.4-.17,14.8-.33,22.21-.5,14.64-.33,29.27-.66,43.91-.99,29.44-.66,58.88-1.33,88.32-1.99,3.66-.08,7.32-.16,10.98-.25,1.6-.04,1.73-2.53.11-2.5-28.61.64-57.22,1.29-85.83,1.93-14.3.32-28.61.64-42.91.97s-27.95.8-41.92.96c-2.55.03-4.97-1.37-5.96-3.77-.6-1.46-1-3.05-1.39-4.58-1.2-4.76-1.73-9.67-1.51-14.57.28-6.25,1.78-12.41,4.35-18.11,1.01-2.23,2.2-4.38,3.53-6.43s2.66-3.45,5.04-3.93c1.78-.35,3.66-.16,5.4.3,2.44.64,4.84,1.49,7.25,2.23,6.83,2.11,13.67,4.22,20.5,6.34,13.67,4.22,27.33,8.45,41,12.67,27.33,8.45,54.66,16.9,81.99,25.35,3.34,1.03,6.67,2.06,10.01,3.09,1.54.47,2.31-1.9.77-2.38Z"/><path class="cls-4" d="m181.8,183.86c-45.54-32.1-91.08-64.2-136.62-96.3-.84-.63-5.69-4.12-10.31-2.41-.54.2-1.13.49-1.74.92-3.64,2.75-9.38,7.85-13.86,15.96-6.11,11.07-6.43,21.55-6.27,26.38.08.73.32,2.08,1.25,3.43,1.55,2.27,3.89,2.92,4.54,3.08,54.34,16.31,108.68,32.62,163.01,48.93Z"/><path class="cls-23" d="m182.54,182.85c-24.06-16.96-48.12-33.92-72.19-50.88-12.1-8.53-24.2-17.06-36.3-25.58-5.98-4.22-11.96-8.43-17.94-12.65l-8.97-6.32c-1.39-.98-2.73-1.95-4.27-2.68-2-.95-4.24-1.49-6.46-1.23-2.45.29-4.32,1.72-6.15,3.26-4.34,3.65-8.11,8.01-11.04,12.87-5.12,8.5-7.72,18.39-7.47,28.3.06,2.55,1.26,4.94,3.28,6.53,2.19,1.72,5.27,2.21,7.86,2.99,7.09,2.13,14.18,4.26,21.27,6.39,14.02,4.21,28.05,8.42,42.07,12.63,28.2,8.47,56.41,16.93,84.61,25.4,3.51,1.05,7.01,2.1,10.52,3.16,1.53.46,2.43-1.88.88-2.34-27.41-8.23-54.82-16.45-82.22-24.68-13.7-4.11-27.41-8.23-41.11-12.34-13.38-4.02-26.83-7.87-40.16-12.05-2.43-.76-4.31-2.84-4.5-5.43-.12-1.58,0-3.21.1-4.78.33-4.9,1.35-9.73,3.07-14.32,2.2-5.86,5.52-11.25,9.74-15.88,1.65-1.81,3.44-3.49,5.34-5.03s3.59-2.46,6.01-2.18c1.8.21,3.53.98,5.05,1.95,2.12,1.37,4.15,2.91,6.21,4.36,5.85,4.12,11.69,8.24,17.54,12.36,11.69,8.24,23.38,16.48,35.07,24.72,23.38,16.48,46.76,32.96,70.15,49.44,2.85,2.01,5.71,4.02,8.56,6.04,1.31.93,2.79-1.09,1.47-2.02Z"/><path class="cls-12" d="m181.79,183.31c-33.39-44.6-66.78-89.2-100.18-133.8-.61-.86-4.14-5.68-9.06-5.48-.58.02-1.23.12-1.94.34-4.31,1.49-11.35,4.57-18.11,10.9-9.23,8.64-12.77,18.5-14.11,23.16-.15.72-.33,2.08.13,3.64.77,2.64,2.8,3.98,3.36,4.33,46.64,32.3,93.28,64.61,139.91,96.91Z"/><path class="cls-23" d="m182.8,182.58c-17.64-23.57-35.29-47.13-52.93-70.7-8.87-11.85-17.74-23.7-26.61-35.55-4.39-5.86-8.77-11.72-13.16-17.57-2.19-2.93-4.39-5.86-6.58-8.79-1.02-1.36-2-2.7-3.24-3.87-1.6-1.52-3.57-2.73-5.76-3.16-2.42-.48-4.64.3-6.86,1.2-5.26,2.13-10.19,5.12-14.47,8.83-7.49,6.5-13.02,15.11-15.85,24.61-.73,2.45-.33,5.09,1.1,7.22,1.55,2.31,4.33,3.73,6.55,5.27,6.09,4.22,12.17,8.43,18.26,12.65,12.04,8.34,24.07,16.67,36.11,25.01,24.21,16.77,48.42,33.54,72.62,50.3,3.01,2.08,6.02,4.17,9.03,6.25,1.31.91,2.89-1.04,1.56-1.95-23.52-16.29-47.05-32.59-70.57-48.88-11.76-8.15-23.52-16.29-35.29-24.44-11.49-7.96-23.08-15.78-34.48-23.87-2.08-1.48-3.22-4.03-2.6-6.56.37-1.54.98-3.06,1.57-4.52,1.82-4.56,4.29-8.84,7.34-12.67,3.9-4.9,8.73-9,14.17-12.1,2.12-1.21,4.35-2.25,6.63-3.13s4.18-1.23,6.39-.22c1.65.76,3.06,2.02,4.2,3.42,1.6,1.95,3.04,4.05,4.56,6.07,4.29,5.72,8.57,11.45,12.86,17.17,8.57,11.45,17.14,22.9,25.72,34.35,17.14,22.9,34.29,45.8,51.43,68.7,2.09,2.8,4.19,5.59,6.28,8.39.96,1.29,2.99-.18,2.02-1.47Z"/><path class="cls-9" d="m181.94,182.78c-17.98-52.74-35.95-105.47-53.93-158.21-.31-1-2.18-6.68-6.93-8.01-.56-.16-1.21-.27-1.95-.28-4.56.09-12.2.84-20.59,4.77-11.45,5.37-17.86,13.65-20.58,17.66-.37.64-.96,1.87-1.01,3.51-.08,2.75,1.43,4.65,1.86,5.16,34.37,45.13,68.75,90.27,103.12,135.4Z"/><path class="cls-23" d="m183.13,182.39c-9.5-27.86-18.99-55.73-28.49-83.59-4.78-14.01-9.55-28.02-14.33-42.03-2.36-6.93-4.72-13.85-7.08-20.78-1.18-3.46-2.36-6.93-3.54-10.39-.55-1.61-1.07-3.18-1.88-4.68-1.06-1.94-2.56-3.7-4.5-4.79-2.16-1.21-4.51-1.15-6.89-.98-5.66.4-11.27,1.72-16.5,3.93-9.13,3.86-17.05,10.34-22.68,18.51-1.45,2.1-1.88,4.74-1.19,7.21.76,2.68,2.96,4.88,4.6,7.04,4.49,5.89,8.97,11.78,13.46,17.67,8.87,11.65,17.74,23.3,26.61,34.94,17.84,23.43,35.68,46.86,53.52,70.28,2.22,2.91,4.44,5.82,6.65,8.74.97,1.27,3.07-.09,2.09-1.38-17.34-22.77-34.68-45.53-52.01-68.3-8.67-11.38-17.34-22.77-26.01-34.15-8.47-11.12-17.08-22.14-25.41-33.35-1.52-2.05-1.81-4.83-.45-7.04.83-1.34,1.88-2.6,2.89-3.81,3.14-3.77,6.81-7.08,10.9-9.78,5.22-3.45,11.08-5.86,17.21-7.13,2.4-.5,4.83-.8,7.28-.93s4.36.12,6.14,1.77c1.33,1.23,2.28,2.87,2.94,4.55.92,2.35,1.64,4.79,2.46,7.18,2.31,6.77,4.61,13.54,6.92,20.31,4.61,13.54,9.23,27.08,13.84,40.62,9.23,27.08,18.46,54.15,27.69,81.23,1.13,3.31,2.25,6.61,3.38,9.92.52,1.52,2.9.75,2.38-.77Z"/><path class="cls-7" d="m182.25,182.33l-2.4-167.13c.01-1.05,0-7.02-4.11-9.76-.48-.32-1.07-.63-1.77-.86-4.37-1.33-11.86-2.98-21.06-1.83-12.55,1.57-21.21,7.46-25.03,10.44-.55.49-1.49,1.48-2.04,3.02-.93,2.59-.08,4.87.18,5.48,18.74,53.55,37.49,107.1,56.23,160.64Z"/><path class="cls-23" d="m183.5,182.33c-.42-29.44-.84-58.87-1.27-88.31-.21-14.8-.42-29.6-.64-44.4-.1-7.32-.21-14.63-.31-21.95-.05-3.66-.1-7.32-.16-10.98-.02-1.7-.03-3.36-.34-5.03-.41-2.17-1.29-4.31-2.8-5.94-1.68-1.82-3.93-2.48-6.25-3.06-5.51-1.36-11.25-1.85-16.9-1.36-9.88.85-19.42,4.57-27.29,10.59-2.03,1.55-3.26,3.93-3.36,6.49-.11,2.78,1.31,5.56,2.2,8.12,2.45,6.99,4.89,13.98,7.34,20.96,4.84,13.82,9.67,27.64,14.51,41.46,9.73,27.79,19.46,55.59,29.19,83.38,1.21,3.45,2.42,6.91,3.63,10.36.53,1.51,2.94.86,2.41-.66-9.45-27.01-18.91-54.02-28.36-81.03-4.73-13.5-9.45-27.01-14.18-40.51-4.62-13.19-9.4-26.33-13.86-39.57-.81-2.42-.23-5.15,1.75-6.83,1.2-1.02,2.59-1.89,3.93-2.73,4.15-2.61,8.66-4.63,13.39-5.94,6.03-1.67,12.35-2.15,18.57-1.46,2.43.27,4.84.74,7.21,1.37s4.11,1.46,5.3,3.58c.89,1.58,1.28,3.43,1.39,5.23.14,2.52.08,5.06.12,7.59.1,7.15.21,14.3.31,21.45.21,14.3.41,28.6.62,42.91.41,28.6.82,57.21,1.23,85.81l.15,10.48c.02,1.61,2.52,1.61,2.5,0Z"/><path class="cls-6" d="m182.69,181.99c16.46-53.23,32.91-106.46,49.37-159.69.34-1,2.16-6.68-.9-10.55-.36-.46-.82-.93-1.41-1.37-3.74-2.61-10.36-6.5-19.46-8.25-12.42-2.39-22.48.54-27.03,2.19-.67.3-1.88.95-2.87,2.24-1.68,2.18-1.58,4.6-1.53,5.26,1.28,56.72,2.56,113.44,3.84,170.16Z"/><path class="cls-23" d="m183.88,182.38c8.69-28.13,17.39-56.25,26.08-84.38,4.37-14.14,8.74-28.28,13.12-42.43,2.16-6.99,4.32-13.98,6.48-20.97,1.08-3.5,2.16-6.99,3.24-10.49.5-1.62,1.01-3.2,1.23-4.89.29-2.19.1-4.49-.83-6.52-1.03-2.24-2.97-3.58-5-4.84-4.81-3-10.13-5.24-15.65-6.52-9.66-2.24-19.88-1.66-29.23,1.64-2.41.85-4.31,2.73-5.2,5.13-.96,2.61-.47,5.69-.41,8.4.17,7.4.33,14.8.5,22.21.33,14.64.66,29.27.99,43.91.66,29.44,1.33,58.88,1.99,88.32.08,3.66.16,7.32.25,10.98.04,1.6,2.53,1.73,2.5.11-.64-28.61-1.29-57.22-1.93-85.83-.32-14.3-.64-28.61-.97-42.91s-.8-27.95-.96-41.92c-.03-2.55,1.37-4.97,3.77-5.96,1.46-.6,3.05-1,4.58-1.39,4.76-1.2,9.67-1.73,14.57-1.51,6.25.28,12.41,1.78,18.11,4.35,2.23,1.01,4.38,2.2,6.43,3.53s3.45,2.66,3.93,5.04c.35,1.78.16,3.66-.3,5.4-.64,2.44-1.49,4.84-2.23,7.25-2.11,6.83-4.22,13.67-6.34,20.5-4.22,13.67-8.45,27.33-12.67,41-8.45,27.33-16.9,54.66-25.35,81.99l-3.09,10.01c-.47,1.54,1.9,2.31,2.38.77Z"/><path class="cls-11" d="m183.21,181.8c32.1-45.54,64.2-91.08,96.3-136.62.63-.84,4.12-5.69,2.41-10.31-.2-.54-.49-1.13-.92-1.74-2.75-3.64-7.85-9.38-15.96-13.86-11.07-6.11-21.55-6.43-26.38-6.27-.73.08-2.08.32-3.43,1.25-2.27,1.55-2.92,3.89-3.08,4.54-16.31,54.34-32.62,108.68-48.93,163.01Z"/><path class="cls-23" d="m184.22,182.54c16.96-24.06,33.92-48.12,50.88-72.19,8.53-12.1,17.06-24.2,25.58-36.3,4.22-5.98,8.43-11.96,12.65-17.94l6.32-8.97c.98-1.39,1.95-2.73,2.68-4.27.95-2,1.49-4.24,1.23-6.46-.29-2.45-1.72-4.32-3.26-6.15-3.65-4.34-8.01-8.11-12.87-11.04-8.5-5.12-18.39-7.72-28.3-7.47-2.55.06-4.94,1.26-6.53,3.28-1.72,2.19-2.21,5.27-2.99,7.86-2.13,7.09-4.26,14.18-6.39,21.27-4.21,14.02-8.42,28.05-12.63,42.07-8.47,28.2-16.93,56.41-25.4,84.61-1.05,3.51-2.1,7.01-3.16,10.52-.46,1.53,1.88,2.43,2.34.88,8.23-27.41,16.45-54.82,24.68-82.22,4.11-13.7,8.23-27.41,12.34-41.11,4.02-13.38,7.87-26.83,12.05-40.16.76-2.43,2.84-4.31,5.43-4.5,1.58-.12,3.21,0,4.78.1,4.9.33,9.73,1.35,14.32,3.07,5.86,2.2,11.25,5.52,15.88,9.74,1.81,1.65,3.49,3.44,5.03,5.34s2.46,3.59,2.18,6.01c-.21,1.8-.98,3.53-1.95,5.05-1.37,2.12-2.91,4.15-4.36,6.21-4.12,5.85-8.24,11.69-12.36,17.54-8.24,11.69-16.48,23.38-24.72,35.07-16.48,23.38-32.96,46.76-49.44,70.15-2.01,2.85-4.02,5.71-6.04,8.56-.93,1.31,1.09,2.79,2.02,1.47Z"/><path class="cls-8" d="m183.76,181.79c44.6-33.39,89.2-66.78,133.8-100.18.86-.61,5.68-4.14,5.48-9.06-.02-.58-.12-1.23-.34-1.94-1.49-4.31-4.57-11.35-10.9-18.11-8.64-9.23-18.5-12.77-23.16-14.11-.72-.15-2.08-.33-3.64.13-2.64.77-3.98,2.8-4.33,3.36-32.3,46.64-64.61,93.28-96.91,139.91Z"/><path class="cls-23" d="m184.49,182.8c23.57-17.64,47.13-35.29,70.7-52.93,11.85-8.87,23.7-17.74,35.55-26.61,5.86-4.39,11.72-8.77,17.57-13.16l8.79-6.58c1.36-1.02,2.7-2,3.87-3.24,1.52-1.6,2.73-3.57,3.16-5.76.48-2.42-.3-4.64-1.2-6.86-2.13-5.26-5.12-10.19-8.83-14.47-6.5-7.49-15.11-13.02-24.61-15.85-2.45-.73-5.09-.33-7.22,1.1-2.31,1.55-3.73,4.33-5.27,6.55-4.22,6.09-8.43,12.17-12.65,18.26-8.34,12.04-16.67,24.07-25.01,36.11-16.77,24.21-33.54,48.42-50.3,72.62-2.08,3.01-4.17,6.02-6.25,9.03-.91,1.31,1.04,2.89,1.95,1.56,16.29-23.52,32.59-47.05,48.88-70.57,8.15-11.76,16.29-23.52,24.44-35.29s15.78-23.08,23.87-34.48c1.48-2.08,4.03-3.22,6.56-2.6,1.54.37,3.06.98,4.52,1.57,4.56,1.82,8.84,4.29,12.67,7.34,4.9,3.9,9,8.73,12.1,14.17,1.21,2.12,2.25,4.35,3.13,6.63s1.23,4.18.22,6.39c-.76,1.65-2.02,3.06-3.42,4.2-1.95,1.6-4.05,3.04-6.07,4.56-5.72,4.29-11.45,8.57-17.17,12.86-11.45,8.57-22.9,17.14-34.35,25.72-22.9,17.14-45.8,34.29-68.7,51.43-2.8,2.09-5.59,4.19-8.39,6.28-1.29.96.18,2.99,1.47,2.02Z"/><path class="cls-13" d="m184.29,181.94c52.74-17.98,105.47-35.95,158.21-53.93,1-.31,6.68-2.18,8.01-6.93.16-.56.27-1.21.28-1.95-.09-4.56-.84-12.2-4.77-20.59-5.37-11.45-13.65-17.86-17.66-20.58-.64-.37-1.87-.96-3.51-1.01-2.75-.08-4.65,1.43-5.16,1.86-45.13,34.37-90.27,68.75-135.4,103.12Z"/><path class="cls-23" d="m184.67,183.13c27.86-9.5,55.73-18.99,83.59-28.49,14.01-4.78,28.02-9.55,42.03-14.33,6.93-2.36,13.85-4.72,20.78-7.08,3.46-1.18,6.93-2.36,10.39-3.54,1.61-.55,3.18-1.07,4.68-1.88,1.94-1.06,3.7-2.56,4.79-4.5,1.21-2.16,1.15-4.51.98-6.89-.4-5.66-1.72-11.27-3.93-16.5-3.86-9.13-10.34-17.05-18.51-22.68-2.1-1.45-4.74-1.88-7.21-1.19-2.68.76-4.88,2.96-7.04,4.6-5.89,4.49-11.78,8.97-17.67,13.46-11.65,8.87-23.3,17.74-34.94,26.61-23.43,17.84-46.86,35.68-70.28,53.52-2.91,2.22-5.82,4.44-8.74,6.65-1.27.97.09,3.07,1.38,2.09,22.77-17.34,45.53-34.68,68.3-52.01,11.38-8.67,22.77-17.34,34.15-26.01,11.12-8.47,22.14-17.08,33.35-25.41,2.05-1.52,4.83-1.81,7.04-.45,1.34.83,2.6,1.88,3.81,2.89,3.77,3.14,7.08,6.81,9.78,10.9,3.45,5.22,5.86,11.08,7.13,17.21.5,2.4.8,4.83.93,7.28s-.12,4.36-1.77,6.14c-1.23,1.33-2.87,2.28-4.55,2.94-2.35.92-4.79,1.64-7.18,2.46l-20.31,6.92c-13.54,4.61-27.08,9.23-40.62,13.84-27.08,9.23-54.15,18.46-81.23,27.69-3.31,1.13-6.61,2.25-9.92,3.38-1.52.52-.75,2.9.77,2.38Z"/><path class="cls-10" d="m184.74,182.25l167.13-2.4c1.05.01,7.02,0,9.76-4.11.32-.48.63-1.07.86-1.77,1.33-4.37,2.98-11.86,1.83-21.06-1.57-12.55-7.46-21.21-10.44-25.03-.49-.55-1.48-1.49-3.02-2.04-2.59-.93-4.87-.08-5.48.18-53.55,18.74-107.1,37.49-160.64,56.23Z"/><path class="cls-23" d="m184.74,183.5c29.44-.42,58.87-.84,88.31-1.27,14.8-.21,29.6-.42,44.4-.64,7.32-.1,14.63-.21,21.95-.31l10.98-.16c1.7-.02,3.36-.03,5.03-.34,2.17-.41,4.31-1.29,5.94-2.8,1.82-1.68,2.48-3.93,3.06-6.25,1.36-5.51,1.85-11.25,1.36-16.9-.85-9.88-4.57-19.42-10.59-27.29-1.55-2.03-3.93-3.26-6.49-3.36-2.78-.11-5.56,1.31-8.12,2.2-6.99,2.45-13.98,4.89-20.96,7.34-13.82,4.84-27.64,9.67-41.46,14.51-27.79,9.73-55.59,19.46-83.38,29.19-3.45,1.21-6.91,2.42-10.36,3.63-1.51.53-.86,2.94.66,2.41,27.01-9.45,54.02-18.91,81.03-28.36,13.5-4.73,27.01-9.45,40.51-14.18s26.33-9.4,39.57-13.86c2.42-.81,5.15-.23,6.83,1.75,1.02,1.2,1.89,2.59,2.73,3.93,2.61,4.15,4.63,8.66,5.94,13.39,1.67,6.03,2.15,12.35,1.46,18.57-.27,2.43-.74,4.84-1.37,7.21s-1.46,4.11-3.58,5.3c-1.58.89-3.43,1.28-5.23,1.39-2.52.14-5.06.08-7.59.12l-21.45.31c-14.3.21-28.6.41-42.91.62-28.6.41-57.21.82-85.81,1.23l-10.48.15c-1.61.02-1.61,2.52,0,2.5Z"/></g><g id="Layer_5"><path class="cls-24" d="m184.29,183.88c-12.81-11.87-93.12,75.06-99.28,95.28-.67,2.2-2.54,8.36.07,10.5,2.75,2.25,9.03-1.11,11.29-2.31,18.44-9.84,100.6-91.72,87.92-103.47Z"/><path class="cls-24" d="m184.01,183.41c-8.51-15.25-111.76,42.61-123.86,59.94-1.32,1.89-5,7.17-3.18,10.01,1.92,2.98,8.93,1.74,11.45,1.29,20.58-3.66,124.02-56.15,115.59-71.24Z"/><path class="cls-24" d="m183.89,182.89c-3.38-17.13-119.46,5.99-136.32,18.73-1.84,1.39-6.98,5.27-6.12,8.54.9,3.43,7.95,4.41,10.49,4.76,20.71,2.88,135.3-15.08,131.95-32.03Z"/><path class="cls-24" d="m183.94,182.35c2.08-17.34-115.46-31.22-135.44-24.31-2.18.75-8.26,2.86-8.46,6.23-.2,3.54,6.2,6.65,8.51,7.77,18.8,9.13,133.33,27.47,135.39,10.31Z"/><path class="cls-24" d="m184.15,181.85c7.33-15.85-100.16-65.37-121.3-64.97-2.3.04-8.74.16-9.97,3.31-1.29,3.31,3.84,8.24,5.69,10.02,15.06,14.5,118.32,67.33,125.58,51.64Z"/><path class="cls-24" d="m184.5,181.44c11.87-12.81-75.06-93.12-95.28-99.28-2.2-.67-8.36-2.54-10.5.07-2.25,2.75,1.11,9.03,2.31,11.29,9.84,18.44,91.72,100.6,103.47,87.92Z"/><path class="cls-24" d="m184.97,181.17c15.25-8.51-42.61-111.76-59.94-123.86-1.89-1.32-7.17-5-10.01-3.18-2.98,1.92-1.74,8.93-1.29,11.45,3.66,20.58,56.15,124.02,71.24,115.59Z"/><path class="cls-24" d="m185.49,181.04c17.13-3.38-5.99-119.46-18.73-136.32-1.39-1.84-5.27-6.98-8.54-6.12-3.43.9-4.41,7.95-4.76,10.49-2.88,20.71,15.08,135.3,32.03,131.95Z"/><path class="cls-24" d="m186.03,181.09c17.34,2.08,31.22-115.46,24.31-135.44-.75-2.18-2.86-8.26-6.23-8.46-3.54-.2-6.65,6.2-7.77,8.51-9.13,18.8-27.47,133.33-10.31,135.39Z"/><path class="cls-24" d="m186.53,181.3c15.85,7.33,65.37-100.16,64.97-121.3-.04-2.3-.16-8.74-3.31-9.97-3.31-1.29-8.24,3.84-10.02,5.69-14.5,15.06-67.33,118.32-51.64,125.58Z"/><path class="cls-24" d="m186.93,181.66c12.81,11.87,93.12-75.06,99.28-95.28.67-2.2,2.54-8.36-.07-10.5-2.75-2.25-9.03,1.11-11.29,2.31-18.44,9.84-100.6,91.72-87.92,103.47Z"/><path class="cls-24" d="m187.21,182.12c8.51,15.25,111.76-42.61,123.86-59.94,1.32-1.89,5-7.17,3.18-10.01-1.92-2.98-8.93-1.74-11.45-1.29-20.58,3.66-124.02,56.15-115.59,71.24Z"/><path class="cls-24" d="m187.33,182.65c3.38,17.13,119.46-5.99,136.32-18.73,1.84-1.39,6.98-5.27,6.12-8.54-.9-3.43-7.95-4.41-10.49-4.76-20.71-2.88-135.3,15.08-131.95,32.03Z"/><path class="cls-24" d="m187.29,183.18c-2.08,17.34,115.46,31.22,135.44,24.31,2.18-.75,8.26-2.86,8.46-6.23.2-3.54-6.2-6.65-8.51-7.77-18.8-9.13-133.33-27.47-135.39-10.31Z"/><path class="cls-24" d="m187.08,183.68c-7.33,15.85,100.16,65.37,121.3,64.97,2.3-.04,8.74-.16,9.97-3.31,1.29-3.31-3.84-8.24-5.69-10.02-15.06-14.5-118.32-67.33-125.58-51.64Z"/><path class="cls-24" d="m186.72,184.09c-11.87,12.81,75.06,93.12,95.28,99.28,2.2.67,8.36,2.54,10.5-.07,2.25-2.75-1.11-9.03-2.31-11.29-9.84-18.44-91.72-100.6-103.47-87.92Z"/><path class="cls-24" d="m186.26,184.37c-15.25,8.51,42.61,111.76,59.94,123.86,1.89,1.32,7.17,5,10.01,3.18,2.98-1.92,1.74-8.93,1.29-11.45-3.66-20.58-56.15-124.02-71.24-115.59Z"/><path class="cls-24" d="m185.73,184.49c-17.13,3.38,5.99,119.46,18.73,136.32,1.39,1.84,5.27,6.98,8.54,6.12,3.43-.9,4.41-7.95,4.76-10.49,2.88-20.71-15.08-135.3-32.03-131.95Z"/><path class="cls-24" d="m185.19,184.44c-17.34-2.08-31.22,115.46-24.31,135.44.75,2.18,2.86,8.26,6.23,8.46,3.54.2,6.65-6.2,7.77-8.51,9.13-18.8,27.47-133.33,10.31-135.39Z"/><path class="cls-24" d="m184.7,184.23c-15.85-7.33-65.37,100.16-64.97,121.3.04,2.3.16,8.74,3.31,9.97,3.31,1.29,8.24-3.84,10.02-5.69,14.5-15.06,67.33-118.32,51.64-125.58Z"/><path class="cls-24" d="m184.29,183.88c-12.81-11.87-93.12,75.06-99.28,95.28-.67,2.2-2.54,8.36.07,10.5,2.75,2.25,9.03-1.11,11.29-2.31,18.44-9.84,100.6-91.72,87.92-103.47Z"/></g><g id="Layer_4"><circle class="cls-23" cx="184.74" cy="182.77" r="126.73"/></g><g id="Layer_2-2"><path class="cls-22" d="m134.01,113.95h4.1v64.68h95.02v-64.68h4.1v142.74h-4.1v-74.41h-95.02v74.41h-4.1V113.95Z"/><text/></g></svg>